<!-- Social Preview Image for GitHub - 1200x630px (with actual logo) -->
<svg width="1200" height="630" viewBox="0 0 1200 630" xmlns="http://www.w3.org/2000/svg">
  <defs>
    <linearGradient id="bg" x1="0%" y1="0%" x2="100%" y2="100%">
      <stop offset="0%" style="stop-color:#111;stop-opacity:1" />
      <stop offset="100%" style="stop-color:#1a1a1a;stop-opacity:1" />
    </linearGradient>
    <linearGradient id="accent" x1="0%" y1="0%" x2="100%" y2="0%">
      <stop offset="0%" style="stop-color:#f97316;stop-opacity:1" />
      <stop offset="50%" style="stop-color:#facc15;stop-opacity:1" />
      <stop offset="100%" style="stop-color:#0ea5a4;stop-opacity:1" />
    </linearGradient>
    <style>
      .cls-1{fill:#111;}
      .cls-2{fill:#facc15;}
      .cls-3{fill:#f97316;}
      .cls-4{fill:#0ea5a4;}
    </style>
  </defs>

  <!-- Background -->
  <rect width="1200" height="630" fill="url(#bg)"/>

  <!-- Subtle grid pattern -->
  <g opacity="0.05">
    <line x1="0" y1="157.5" x2="1200" y2="157.5" stroke="#fff" stroke-width="1"/>
    <line x1="0" y1="315" x2="1200" y2="315" stroke="#fff" stroke-width="1"/>
    <line x1="0" y1="472.5" x2="1200" y2="472.5" stroke="#fff" stroke-width="1"/>
    <line x1="300" y1="0" x2="300" y2="630" stroke="#fff" stroke-width="1"/>
    <line x1="600" y1="0" x2="600" y2="630" stroke="#fff" stroke-width="1"/>
    <line x1="900" y1="0" x2="900" y2="630" stroke="#fff" stroke-width="1"/>
  </g>

  <!-- Accent bar top -->
  <rect x="0" y="0" width="1200" height="4" fill="url(#accent)"/>

  <!-- Actual Cortex TMS Logo (scaled and positioned) -->
  <g transform="translate(80, 100) scale(0.25)">
    <path class="cls-3" d="M385.87,170.3c.97.5,1.93,1,2.93,1.52.66.33,1.32.67,2,1.01,9.24,4.67,18.27,9.65,27.16,14.96,6.38,3.8,12.85,7.42,19.34,11.03,7.89,4.39,15.72,8.85,23.48,13.46,4.81,2.85,9.68,5.59,14.59,8.29,7,3.86,13.92,7.84,20.81,11.88,19.69,11.53,39.5,22.83,59.51,33.8,3.38,1.85,6.75,3.71,10.12,5.58.63.34,1.25.69,1.9,1.04,1.92,1.05,3.83,2.12,5.74,3.18,1.14.63,2.27,1.26,3.44,1.91,4.03,2.58,6.64,5.21,7.92,9.87.4,4.69-.56,8.11-2.62,12.31-4.27,4.83-10.6,7.37-16.29,10.27-1.34.68-2.67,1.37-4.01,2.05-.69.35-1.39.71-2.1,1.08-14.94,7.64-29.76,15.47-44.53,23.44-3.54,1.91-7.09,3.81-10.64,5.7-13.42,7.17-26.81,14.39-40.16,21.7-4.55,2.49-9.10,4.97-13.65,7.45-1.84,1.01-3.68,2.01-5.53,3.02-3.57,1.95-7.15,3.9-10.73,5.84-.87.48-1.74.95-2.64,1.44-1.78.97-3.55,1.93-5.33,2.9-4.79,2.61-9.57,5.24-14.33,7.91-2.61,1.46-5.21,2.92-7.82,4.37-1.27.71-2.54,1.42-3.80,2.14-12.88,7.29-24.95,12.44-39.95,8.57-6.96-2.74-13.43-6.63-19.9-10.36-6.21-3.57-12.5-7-18.77-10.46-2.53-1.40-5.07-2.79-7.60-4.19-.63-.35-1.27-.70-1.92-1.06-5.34-2.95-10.68-5.92-16.01-8.89-12.09-6.74-24.25-13.36-36.45-19.9-5.82-3.12-11.61-6.29-17.4-9.46-8.34-4.57-16.76-9-25.2-13.37-7.54-3.92-15-7.96-22.44-12.06-4.66-2.56-9.34-5.06-14.07-7.47-.96-.49-1.92-.98-2.91-1.48-1.82-.93-3.65-1.85-5.49-2.75-5.68-2.89-9.59-5.42-11.7-11.74-.59-4.98-.48-7.93,2.38-12.12,2.47-2.88,4.88-4.83,8.15-6.74q1.33-.77,2.68-1.56c4.63-2.61,9.3-5.13,13.98-7.64,17.22-9.27,34.18-18.95,51.04-28.85,7-4.09,14.07-8.03,21.19-11.9,7.69-4.2,15.24-8.63,22.79-13.06,6.67-3.91,13.38-7.72,20.15-11.45,5.6-3.09,11.16-6.25,16.7-9.43,8.05-4.61,16.11-9.2,24.19-13.75,1.04-.59,2.07-1.17,3.14-1.78,12.6-7.08,24.35-12.91,38.68-6.24Z"/>
    <path class="cls-2" d="M224.8,347.82c5.66,2.09,10.78,4.99,16,8q1.35.77,2.72,1.56c5.08,2.92,10.15,5.88,15.2,8.86,5.5,3.24,11.03,6.42,16.58,9.58,7.49,4.26,14.94,8.58,22.38,12.94,9.73,5.7,19.52,11.29,29.36,16.81,4.02,2.26,8.02,4.55,12.01,6.85q1.54.89,3.11,1.79c1.95,1.12,3.90,2.25,5.85,3.39,7.85,4.5,14.92,7.65,24.11,7.66,1.17.02,2.34.04,3.55.06,9.87-.72,18.73-5.57,27.07-10.5.98-.57,1.97-1.14,2.98-1.72,2.03-1.18,4.06-2.35,6.09-3.54,4.62-2.69,9.28-5.34,13.93-7.99,1.74-1,3.48-1.99,5.23-2.99,4.2-2.4,8.42-4.77,12.65-7.13,7.59-4.25,15.11-8.64,22.62-13.04,10.89-6.37,21.82-12.67,32.76-18.97,2.48-1.43,4.95-2.87,7.42-4.31.65-.38,1.31-.76,1.98-1.15,1.63-.94,3.25-1.89,4.87-2.84,2.28-1.19,4.03-1.88,6.54-2.32q1.16-.22,2.35-.45c11.04-.97,19.47,5.12,28.65,10.45,1.46.82,2.93,1.64,4.39,2.46,2.68,1.49,5.35,3,8.01,4.52,3.19,1.82,6.45,3.48,9.73,5.15,5.28,2.85,9.17,6.47,11.88,11.88.6,6-.49,10.19-4,15-6.22,5.04-13.64,8.71-20.62,12.56-2.22,1.24-4.45,2.47-6.67,3.71-1.12.62-2.24,1.24-3.39,1.88-5.1,2.84-10.18,5.72-15.26,8.6-6.65,3.77-13.31,7.5-20,11.19-6.97,3.84-13.83,7.84-20.69,11.88-8.04,4.73-16.15,9.28-24.38,13.69-7.99,4.28-15.88,8.71-23.69,13.31-10.23,6.03-20.58,11.81-30.99,17.51-7.15,3.91-14.23,7.91-21.28,12-7.05,3.88-13.41,4.95-21.42,5.18q-1.01.05-2.03.09c-11.31,0-21.85-7.14-31.47-12.41-1.15-.62-2.30-1.25-3.48-1.89-9.80-5.34-19.49-10.86-29.11-16.5-2.05-1.20-4.10-2.40-6.16-3.61q-1.56-.91-3.15-1.84c-7.15-4.17-14.37-8.20-21.64-12.16-7.69-4.20-15.23-8.62-22.79-13.05-8.18-4.79-16.45-9.43-24.75-14-10.35-5.72-20.63-11.57-30.88-17.47-4.63-2.66-9.28-5.28-13.96-7.85-.94-.52-1.89-1.05-2.86-1.59-1.80-1-3.60-1.98-5.41-2.95-5.94-3.31-10.83-7.07-13.93-13.27-.81-4.40-1-8.38,1.41-12.27,5.32-6,10.84-9.59,17.97-13.16,2.13-1.11,4.25-2.22,6.38-3.32,1.05-.54,2.10-1.08,3.18-1.64,4.53-2.36,8.99-4.85,13.45-7.35,7.75-4.33,12.55-6.55,21.62-5.25Z"/>
    <path class="cls-4" d="M221.8,441.82c9.41,3.99,18.21,9.35,26.94,14.62,2.36,1.42,4.72,2.83,7.08,4.23.59.35,1.17.70,1.78,1.06,5.72,3.41,11.52,6.69,17.33,9.95,7.06,3.96,14.07,7.98,21.03,12.11,7.51,4.44,15.10,8.75,22.69,13.07,7.25,4.13,14.48,8.30,21.65,12.57q18.40,11.05,39.29,11.83c14.07-3.78,26.75-11.88,39.16-19.28,6.92-4.13,13.92-8.12,20.92-12.11,2.44-1.39,4.88-2.78,7.32-4.18.59-.34,1.18-.67,1.79-1.02,4.93-2.81,9.85-5.64,14.76-8.49.74-.43,1.48-.86,2.24-1.30,4.23-2.45,8.45-4.92,12.66-7.41,10.45-6.15,20.95-12.18,31.60-17.98,1.02-.56,2.04-1.11,3.08-1.69.95-.51,1.89-1.02,2.87-1.55.83-.45,1.66-.90,2.52-1.36,5.10-2.43,10.19-2.98,15.68-1.38,6.86,2.47,13.12,5.53,19.47,9.11,1.92,1.07,3.85,2.14,5.77,3.21.92.51,1.83,1.03,2.78,1.55,2.22,1.23,4.46,2.42,6.71,3.59,1.13.59,2.26,1.17,3.43,1.77.95.48,1.90.97,2.88,1.46,4.07,2.54,6.91,5.63,9.56,9.60.53,5.46-.41,9.18-3,14-3.33,3.70-6.59,6.14-10.95,8.50-.57.31-1.14.62-1.72.94-1.85,1.01-3.71,2.01-5.57,3-1.31.71-2.61,1.42-3.91,2.13-2,1.09-3.99,2.17-5.99,3.26-6.27,3.40-12.50,6.87-18.72,10.36-1.01.57-2.03,1.14-3.07,1.72-3.02,1.69-6.04,3.39-9.05,5.09-1,.56-2.01,1.13-3.04,1.71-10.43,5.86-20.85,11.73-31.12,17.87-4.57,2.72-9.21,5.28-13.88,7.81-14.11,7.66-28.13,15.47-41.96,23.61-8.17,4.80-16.38,9.52-24.66,14.13-1.73.96-3.45,1.93-5.17,2.90-13.57,7.54-26.28,13.02-42.11,9.28-3.15-1.24-6.07-2.71-9.06-4.30-.75-.39-1.50-.78-2.27-1.19-11.71-6.15-23.15-12.75-34.55-19.46-7.17-4.21-14.40-8.31-21.67-12.35-8.29-4.61-16.51-9.32-24.69-14.12-8.45-4.96-16.98-9.75-25.60-14.41-6.58-3.56-13.09-7.21-19.59-10.90-7.97-4.53-15.99-8.96-24.06-13.31q-36.13-19.51-38.56-27.25c-.75-4.67-.67-8.60,1.88-12.69,7.30-8.52,20.14-13.03,30-18.06,1.51-.77,3.02-1.55,4.53-2.32,3.86-1.98,7.73-3.96,11.59-5.93.73-.39,1.46-.79,2.21-1.20,3.61-1.62,7-1.51,10.79-.80Z"/>
    <path style="fill:#ffffff;" d="M647.49,174.89c-14.64,11.97-36.20,10.40-48.78-3.72-25.47-28.55-54.57-51.08-87.32-67.59C310.15.13,62.34,154.95,71.12,384.16c-12.33,276.85,341.82,418.15,527.18,215.54,12.73-13.22,33.40-14.68,47.76-3.23,51.52,47.73-64.88,109.20-100.82,129.56-51.56,25.21-109.15,37.82-172.78,37.82C-125.15,768.10-122.86-1.12,371.54,0c64.55,0,122.85,13.43,174.88,40.29,35.61,20.35,152.08,88.92,101.07,134.60Z"/>
  </g>

  <!-- Title -->
  <text x="280" y="200" font-family="system-ui, -apple-system, sans-serif" font-size="72" font-weight="700" fill="#ffffff">
    Cortex TMS
  </text>

  <!-- Tagline -->
  <text x="280" y="260" font-family="system-ui, -apple-system, sans-serif" font-size="32" font-weight="400" fill="#a0a0a0">
    AI Governance Platform
  </text>

  <!-- Value Props -->
  <g transform="translate(280, 320)">
    <!-- Cost Efficiency -->
    <g>
      <rect x="0" y="0" width="6" height="50" fill="#facc15" rx="3"/>
      <text x="25" y="20" font-family="system-ui, -apple-system, sans-serif" font-size="22" font-weight="600" fill="#facc15">
        💰 40-60% Cost Reduction
      </text>
      <text x="25" y="45" font-family="system-ui, -apple-system, sans-serif" font-size="16" fill="#808080">
        Intelligent context management
      </text>
    </g>

    <!-- Quality -->
    <g transform="translate(0, 80)">
      <rect x="0" y="0" width="6" height="50" fill="#0ea5a4" rx="3"/>
      <text x="25" y="20" font-family="system-ui, -apple-system, sans-serif" font-size="22" font-weight="600" fill="#0ea5a4">
        ✅ Zero Hallucinations
      </text>
      <text x="25" y="45" font-family="system-ui, -apple-system, sans-serif" font-size="16" fill="#808080">
        Semantic validation for AI agents
      </text>
    </g>

    <!-- Sustainability -->
    <g transform="translate(0, 160)">
      <rect x="0" y="0" width="6" height="50" fill="#f97316" rx="3"/>
      <text x="25" y="20" font-family="system-ui, -apple-system, sans-serif" font-size="22" font-weight="600" fill="#f97316">
        🌱 60-70% Less Compute
      </text>
      <text x="25" y="45" font-family="system-ui, -apple-system, sans-serif" font-size="16" fill="#808080">
        Green governance for developers
      </text>
    </g>
  </g>

  <!-- Footer -->
  <g transform="translate(80, 580)">
    <text x="0" y="0" font-family="system-ui, -apple-system, monospace" font-size="18" fill="#606060">
      cortex-tms.org
    </text>
    <text x="300" y="0" font-family="system-ui, -apple-system, monospace" font-size="18" fill="#606060">
      •
    </text>
    <text x="330" y="0" font-family="system-ui, -apple-system, monospace" font-size="18" fill="#606060">
      MIT License
    </text>
    <text x="510" y="0" font-family="system-ui, -apple-system, monospace" font-size="18" fill="#606060">
      •
    </text>
    <text x="540" y="0" font-family="system-ui, -apple-system, monospace" font-size="18" fill="#606060">
      ⭐ 146 Stars
    </text>
    <text x="720" y="0" font-family="system-ui, -apple-system, monospace" font-size="18" fill="#606060">
      •
    </text>
    <text x="750" y="0" font-family="system-ui, -apple-system, monospace" font-size="18" fill="#f97316">
      Production Ready
    </text>
  </g>
</svg>
